# xmcd
#
# Track frame offsets:
#	150
#	21020
#	39622
#	56798
#	79677
#	100725
#	116662
#	134363
#	156436
#	173187
#	192563
#	233475
#	246539
#
# Disc length: 3624 seconds
#
# Revision: 1
# Processed by: cddbd v1.5.2PL0 Copyright (c) Steve Scherf et al.
# Submitted via: audiograbber 1.83.01
#
DISCID=b10e260d
DTITLE=Jackie Payne Steve Edmonson Band - Overnight Sensation
DYEAR=2008
DGENRE=Blues
TTITLE0=Overnight Sensation
TTITLE1=Can I Hit It Again
TTITLE2=Mother-In-Law Blues
TTITLE3=Take A Chance On Me
TTITLE4=I Got A Mind To Go To Chicago
TTITLE5=Uptown Woman Downtown Man
TTITLE6=Midnight Friend
TTITLE7=Your Good Thing (Is About To Come To An End)
TTITLE8=No Money, No Honey
TTITLE9=Bag Full Of Doorknobs
TTITLE10=She's Looking Good - I've Never Found A Girl
TTITLE11=Bringin' Me Right Back
TTITLE12=Feel Like Going Home
EXTD=
EXTT0=
EXTT1=
EXTT2=
EXTT3=
EXTT4=
EXTT5=
EXTT6=
EXTT7=
EXTT8=
EXTT9=
EXTT10=
EXTT11=
EXTT12=
PLAYORDER=
